PathFileType	4	(X/Y/Z)	Walk1_0-155.trc
DataRate	CameraRate	NumFrames	NumMarkers	Units	OrigDataRate	OrigDataStartFrame	OrigNumFrames
30	30	6	22	m	30	77	155
Frame#	Time	Hip			RHip			RKnee			RAnkle			RBigToe			RSmallToe			RHeel			LHip			LKnee			LAnkle			LBigToe			LSmallToe			LHeel			Neck			Head			Nose			RShoulder			RElbow			RWrist			LShoulder			LElbow			LWrist		
		X1	Y1	Z1	X2	Y2	Z2	X3	Y3	Z3	X4	Y4	Z4	X5	Y5	Z5	X6	Y6	Z6	X7	Y7	Z7	X8	Y8	Z8	X9	Y9	Z9	X10	Y10	Z10	X11	Y11	Z11	X12	Y12	Z12	X13	Y13	Z13	X14	Y14	Z14	X15	Y15	Z15	X16	Y16	Z16	X17	Y17	Z17	X18	Y18	Z18	X19	Y19	Z19	X20	Y20	Z20	X21	Y21	Z21	X22	Y22	Z22
78	2.6	-0.6674067790813126	0.8862670828978274	0.3604828607721146	-0.659927274154893	0.8605210738190958	0.46783074608924613	-0.616248826486244	0.4989038879338052	0.4220448255644753	-0.6566562568062084	0.10301430560722576	0.3813960810225311	-0.4465401895266383	0.03541206240622477	0.3815488728322528	-0.47488330562204073	0.020772981887663366	0.4224039009132586	-0.6995055842677126	0.02588161461092518	0.3689776004553092	-0.6686488003837446	0.8634727955153251	0.2539649044659675	-0.5710676906570802	0.5126572124853647	0.22494950502798247	-0.8520583233392394	0.23936039123274244	0.2853595656018286	-0.8459496840148774	0.04903794884648535	0.23093534249147096	-0.8713105095228282	0.08595213207877175	0.1967275115250963	-0.9415679240495952	0.2091411125512059	0.2958029899397393	-0.7196305541889156	1.5708282112500709	0.3513430743577264	-0.6808366440366334	1.8200588338164927	0.36654544689201257	-0.5523750442511496	1.6806433735545425	0.36874676956289965	-0.7531458291793517	1.4486558710954687	0.530848711818229	-0.6498363726891864	1.124125758639028	0.6168984392467913	-0.5701152552498165	0.891617528122742	0.6350677198815202	-0.7577936635710465	1.4580809016305483	0.15348824361433377	-0.7377200163204206	1.1403906047644852	0.12670701420305328	-0.691679687771092	0.8892431258992484	0.0989829206616931
79	2.6333333333333333	-0.6331995552635873	0.8959107828928935	0.3634362057342699	-0.6287100128338949	0.8753075275444226	0.4682913090575106	-0.6090999000495801	0.5027931218887854	0.42194546151430673	-0.6294244758838204	0.120969876821607	0.3702115576315723	-0.44584646936484273	0.02918437525652866	0.3784859835820375	-0.4784160619653077	0.009885237694722247	0.4142158870154982	-0.6917931827063579	0.024781999859631466	0.369038396334235	-0.6368255352381672	0.8794530727243267	0.25271161913988466	-0.49691747746097525	0.5388092099103186	0.2270226537166727	-0.7542102530747393	0.22529993267961873	0.29058189835721304	-0.6457225562283975	0.031915744459732776	0.29828274332335647	-0.6920291604258354	0.058993485929617506	0.25421449672231394	-0.8402432462772871	0.18483546160769118	0.29458679177446895	-0.6772341160286363	1.5792955342661608	0.35110479900167	-0.6404598119184154	1.8268525965541196	0.3709150786076507	-0.5138919884395401	1.686687524162368	0.3688276045731542	-0.7115251482108872	1.4591392154388847	0.5276049172704455	-0.5934972661292426	1.1498372103043533	0.6019655067068791	-0.49360991434697504	0.908665985526634	0.6385616693640683	-0.7170919491975365	1.4654288467354901	0.14910480254154512	-0.6815651989818139	1.1537237119910055	0.11900709631155018	-0.6696735142855227	0.8990794045771222	0.09755599665683758
80	2.6666666666666665	-0.6018514057783831	0.9043654410564502	0.36626586423572804	-0.6052470604218414	0.8838594596383202	0.4713117514073822	-0.598434685605874	0.5074661016940688	0.4265142259345616	-0.6356715109406125	0.11956562954370463	0.3820811529231779	-0.4354612368572615	0.032536844540083744	0.3774223097176717	-0.4853648722648593	0.021964304299486672	0.4302083259887535	-0.6762129807742582	0.04674210369683979	0.3919307144679072	-0.5976194384813295	0.8910565075196116	0.251898921650103	-0.390664901341581	0.5651311961309984	0.27105456928699756	-0.6666818209341093	0.26173149715781835	0.26802406994650774	-0.5033365346033166	0.023119161373123434	0.3077740718303599	-0.5478685050349115	0.04593027163576328	0.25126555052626426	-0.7312922808967484	0.21606023271134944	0.2775918088616071	-0.6365848728213542	1.5866892105903339	0.3517842633643334	-0.5934900865072968	1.8344130296061383	0.3712675706669667	-0.4400209315421278	1.6731020241698724	0.33964134877382535	-0.6733928832017076	1.4652886596670682	0.5283688851076155	-0.5436860930877931	1.1595914532612583	0.6021474060672083	-0.42157060297714133	0.9246772278177006	0.635321410754219	-0.6376843798553047	1.465694157317897	0.18090279079676466	-0.6702312559012203	1.1483835911357458	0.10661288498545762	-0.6560190114710297	0.8961881955541021	0.10306069566337349
81	2.7	-0.5622386483078768	0.9083414608164864	0.3656414074217261	-0.567665857413355	0.8837680048148061	0.47044172981345994	-0.5801966196725995	0.5125116424898436	0.42392143680795935	-0.6290537774548313	0.11493561671972066	0.37278387698955723	-0.42014579846313577	0.0016590377537975996	0.3791143464793973	-0.47209703184023094	0.009915872050506244	0.4287603199925487	-0.6984945963301835	0.0433267805035216	0.36287045291267783	-0.5524846152578948	0.896689458686345	0.2453084552397153	-0.3299292003831797	0.5791825823429301	0.27071641130710855	-0.566448823202817	0.22072975226575023	0.26629113485455275	-0.36269764940982363	0.018087603543210637	0.30034923186395773	-0.4659098039083599	0.08036267647322953	0.18533642475909767	-0.6239496420265485	0.1674486462251683	0.2745265926584479	-0.595684370258543	1.5903323908358349	0.35237982355934044	-0.5410719179178956	1.8342222082355255	0.3642192588330104	-0.37872659960515037	1.6728523554556558	0.3232944067773524	-0.6321028528703612	1.4687976879771036	0.5309569702721191	-0.4922626987754847	1.1677652410994641	0.6073032420513216	-0.35040955015181563	0.9410819648188199	0.629932956377499	-0.638353206400592	1.4771051864027274	0.152624805133864	-0.6401967017038488	1.1596693510995422	0.13479376693455358	-0.6318639784306888	0.9049812056100496	0.10740009124848139
82	2.7333333333333334	-0.525164366089157	0.9070911688374592	0.3675584695027047	-0.5392462640237758	0.880122963111769	0.47044832980062423	-0.5711496139163834	0.5096775601503658	0.4232880188948909	-0.636596008651008	0.10423984775071608	0.36301081943692115	-0.4502307959115964	0.029646964369638852	0.37367213005695726	-0.503077978534313	0.02083408425042215	0.42704976169673897	-0.6896314571184831	0.024955332696288076	0.35079346880656015	-0.5107405713788583	0.894717939211073	0.24456936348137098	-0.2884319615438498	0.5791553657789795	0.2652500575103221	-0.4502779610997645	0.17848593982203054	0.2673839521990449	-0.23545836070669543	0.06371110162062582	0.2749569133354288	-0.28225238376496914	0.07110961653231179	0.22653044150707577	-0.501237512262676	0.11254667363130867	0.2843431013684736	-0.5541428528231525	1.589443326428737	0.35329450964911296	-0.49538030858695087	1.8360098614509215	0.36049803885702064	-0.3406145599818445	1.6716446906681812	0.3267221068962827	-0.5905436833970763	1.470370160723345	0.5323139037874686	-0.4463506324210274	1.1704974265884385	0.6067366480050391	-0.2847210259779087	0.9536148262966974	0.6240493019449093	-0.6030420956112643	1.47764615252206	0.15353759550440765	-0.6371642818320121	1.1641473233578277	0.12011365087297265	-0.606689685187756	0.8984124980333322	0.10150965182341073
83	2.7666666666666666	-0.4905868428494867	0.9051485244971385	0.36708870586735737	-0.5077855386707343	0.8820473612775793	0.47513076632510753	-0.5519547729351785	0.5091421164009804	0.42685667392754634	-0.6286300512114261	0.1057568002278606	0.3704587842594544	-0.4379170783936648	0.023340761769054703	0.3927425630760724	-0.49513122333283643	0.022451610480936097	0.4416678285667405	-0.6957378139415811	0.02641225839077844	0.34821843369601446	-0.46757654413177147	0.893316608486151	0.24768420582906747	-0.251695631663028	0.5699695122008458	0.2627922117509162	-0.3365000035615477	0.16209131119622414	0.25058711602289707	-0.11491909700320196	0.08007146311997322	0.2576939869991495	-0.15571046823925302	0.07770995499988477	0.21088076730997488	-0.3857725974618352	0.0989979090944566	0.2629948047265012	-0.5153187765108895	1.5876824975009165	0.3541293662517013	-0.4564229139525452	1.8333967408921037	0.3615052481509125	-0.2910369974417653	1.6679802278600118	0.31607822577981376	-0.5486492157499673	1.4704551492459585	0.5289578203920109	-0.4032187248470739	1.1718706014542286	0.6093387350361037	-0.21665199945137048	0.96531803016607	0.6218042173031174	-0.5596636506699793	1.4746786156910408	0.15540761051613217	-0.601206741908833	1.164467022210238	0.12140841854130702	-0.5834642712670806	0.9051223833255168	0.09959749397313553
